<svg xmlns="http://www.w3.org/2000/svg" viewBox="0 0 1000 1000">
<title>BossZhiPin icon</title>
<rect x="140" y="150" width="720" height="560" rx="150" fill="#231917"/>
<path d="M300 690 L300 880 L470 700 Z" fill="#231917"/>
<g transform="translate(-131.46,53.69) scale(4.4944)" fill-rule="evenodd">
<g transform="translate(0.000000,161.000000) scale(0.100000,-0.100000)"
fill="#FEFEFC" stroke="none">
<path d="M863 883 c-61 -219 -110 -400 -107 -402 7 -7 192 -49 285 -65 347
-58 673 -45 957 36 56 16 71 25 68 37 -3 9 -53 189 -112 401 -58 212 -108 387
-110 389 -2 2 -36 -26 -74 -64 -71 -68 -71 -68 -153 -59 -106 12 -320 11 -419
0 -77 -9 -77 -9 -146 58 -38 36 -71 66 -74 66 -2 0 -54 -179 -115 -397z m351
74 c26 -35 25 -110 -2 -146 -47 -64 -131 -54 -153 18 -36 120 86 221 155 128z
m517 13 c58 -32 64 -143 10 -192 -36 -32 -52 -34 -91 -11 -108 63 -29 261 81
203z m-231 -170 c11 14 20 28 20 33 0 4 18 -5 40 -19 22 -15 39 -30 38 -33 -2
-3 -25 -39 -52 -79 -49 -73 -49 -73 -93 -30 -43 42 -43 42 -86 0 -43 -42 -43
-42 -95 33 -29 41 -52 77 -52 79 0 2 16 15 37 27 36 23 36 23 60 -7 24 -29 24
-29 56 9 31 37 31 37 69 0 39 -38 39 -38 58 -13z"/>
</g>
</g>
</svg>
